<svg width="403" height="1305" viewBox="0 0 403 1305" fill="none" xmlns="http://www.w3.org/2000/svg">
<mask id="mask0_42_66" style="mask-type:alpha" maskUnits="userSpaceOnUse" x="0" y="0" width="403" height="1305">
<path fill-rule="evenodd" clip-rule="evenodd" d="M199.547 0.603031C199.215 0.935031 195.428 1.61903 191.13 2.12403C186.833 2.62903 181.153 3.29403 178.508 3.60203C172.416 4.31203 164.029 7.99703 159.544 11.935C157.634 13.612 154.341 17.497 152.224 20.57C149.862 24 147.11 26.687 145.097 27.528C142.176 28.748 141.817 29.33 141.817 32.842C141.817 35.425 141.299 36.985 140.317 37.362C138.643 38.004 138.28 41.55 139.792 42.484C140.344 42.826 140.502 45.02 140.156 47.544C139.772 50.348 139.93 52 140.583 52C141.154 52 141.931 54.813 142.311 58.25C142.69 61.688 144.05 68.325 145.333 73C146.616 77.675 147.957 84.089 148.313 87.253L148.962 93.005L146.398 92.031C144.988 91.495 143.121 91.33 142.249 91.664C139.016 92.905 137.744 101.175 139.938 106.685C140.555 108.233 142.086 113.45 143.34 118.277C145.725 127.456 149.599 134 152.647 134C154.009 134 154.6 135.434 155.441 140.772C156.027 144.497 157.291 149.196 158.248 151.214C159.835 154.557 159.89 156.332 158.866 171.174C158.083 182.521 157.279 188.173 156.214 189.797C154.746 192.039 131.845 204 129.021 204C128.288 204 125.176 205.149 122.105 206.554C115.229 209.699 101.096 214.401 94.1035 215.868C79.3705 218.962 56.4045 228.696 48.7075 235.11C37.9515 244.072 27.2055 262.259 22.6545 279.202C20.8385 285.965 20.3055 291.383 19.7735 308.5C19.1545 328.436 16.8915 351.368 14.7915 359C13.6305 363.216 13.6035 386.416 14.7415 401.171C15.3205 408.682 15.1865 414.16 14.2875 419.671C12.8705 428.357 12.4685 429.565 7.47254 440.131C5.55654 444.184 3.49954 450.17 2.90254 453.434C0.395544 467.133 2.57155 567.105 5.89755 591C6.47155 595.125 7.37055 606.375 7.89655 616C8.42255 625.625 9.11755 636.425 9.44254 640C9.98555 645.978 8.94554 655.304 6.76654 664C6.28354 665.925 5.23854 670.2 4.44454 673.5C3.64954 676.8 2.28355 682.182 1.40755 685.46C-0.843451 693.892 -0.681455 694.929 4.01055 702.095C6.31655 705.618 9.66755 712.1 11.4565 716.5C15.8965 727.42 19.3085 730.59 30.3165 734.024C32.5165 734.71 35.4595 736.074 36.8565 737.054C40.9905 739.956 51.9436 743.241 55.5396 742.658C57.3216 742.368 58.9625 742.44 59.1855 742.816C59.4095 743.192 59.8855 764.875 60.2445 791C60.8575 835.533 61.0485 839.281 63.3055 851C69.6995 884.188 69.6845 884.044 67.3375 891.072C64.6695 899.059 62.8165 913.048 62.7925 925.381C62.7795 932.046 62.3365 939.3 61.8075 941.5C61.2785 943.7 60.1395 950 59.2766 955.5C58.4136 961 56.7775 969.775 55.6425 975C54.5065 980.225 53.2015 986.3 52.7405 988.5C51.3575 995.11 51.7075 1025.95 53.3095 1038.66C54.1315 1045.17 55.7085 1062.2 56.8135 1076.5C60.6155 1125.67 63.3595 1149.99 66.8775 1165.69C69.0175 1175.25 67.4105 1200.59 64.2255 1207.5C63.4645 1209.15 59.2255 1215.68 54.8055 1222C50.3855 1228.32 46.4955 1234.62 46.1605 1236C44.5785 1242.49 41.2775 1247.49 34.0955 1254.28C29.8895 1258.25 25.6305 1262.29 24.6325 1263.25C23.6335 1264.21 22.8165 1265.49 22.8165 1266.1C22.8165 1266.7 21.5095 1268.42 19.9115 1269.91C16.9595 1272.67 16.4955 1274.07 16.7015 1279.59C16.8485 1283.55 24.8885 1293.02 32.5335 1298.25C36.7645 1301.14 38.9955 1302 42.2915 1302C44.6425 1302 48.4785 1302.68 50.8165 1303.5C55.5605 1305.17 63.4705 1305.47 67.0015 1304.11C68.2745 1303.61 70.3635 1302.29 71.6425 1301.17C74.8705 1298.34 81.3625 1285.54 84.3255 1276.16C85.6875 1271.85 87.5925 1267.61 88.5585 1266.73C89.5256 1265.86 93.3075 1264.4 96.9625 1263.48C101.971 1262.22 104.437 1260.96 106.963 1258.35C110.14 1255.07 110.308 1254.54 110.148 1248.2C109.697 1230.34 109.846 1223.6 110.926 1212.83C111.956 1202.57 111.882 1200.06 110.315 1191.99C108.488 1182.58 108.589 1173.93 110.716 1157.5C111.215 1153.65 112.125 1146.22 112.74 1141C113.354 1135.78 114.283 1128.8 114.804 1125.5C115.325 1122.2 116.46 1112.3 117.326 1103.5C118.193 1094.7 120.034 1081.27 121.419 1073.65C127.301 1041.29 127.828 1029.73 125.189 990.903L123.518 966.305L126.186 957.903C128.918 949.301 133.106 938.593 137.4 929.228C138.729 926.328 139.817 923.273 139.817 922.438C139.817 921.603 140.648 919.251 141.663 917.21C142.678 915.17 144.959 907.2 146.731 899.5C148.503 891.8 150.366 883.7 150.871 881.5C151.376 879.3 152.293 873.225 152.909 868C155.123 849.222 155.668 845.388 157.188 837.887C158.617 830.836 161.701 821.522 165.188 813.729C165.982 811.953 168.776 803.975 171.395 796C174.015 788.025 176.488 780.6 176.891 779.5C178.138 776.097 181.434 762.107 183.487 751.5C183.807 749.85 184.422 748.05 184.853 747.5C186.497 745.406 188.818 733.949 188.832 727.856C188.852 719.605 189.44 718.756 194.563 719.575C199.202 720.317 199.782 721.435 199.803 729.691C199.811 732.546 200.215 735.128 200.702 735.429C201.188 735.729 201.88 738.118 202.238 740.738C202.597 743.357 203.324 747.637 203.854 750.25C204.383 752.862 205.241 757.137 205.76 759.75C209.24 777.284 212.184 787.893 218.598 806C220.253 810.675 222.568 819 223.741 824.5C224.915 830 226.321 836.075 226.867 838C228.424 843.493 232.689 883.072 233.332 898C233.652 905.425 234.307 913.075 234.788 915C237.719 926.741 246.007 951.308 247.755 953.437C248.235 954.021 249.377 957.087 250.293 960.248C251.875 965.712 251.849 967.1 249.761 988.248C247.918 1006.91 247.653 1014.29 248.116 1034C248.617 1055.31 248.908 1058.34 251.25 1066.5C254.955 1079.42 256.577 1087.92 257.825 1101C258.428 1107.32 259.333 1115.2 259.836 1118.5C260.819 1124.95 264.116 1151.34 265.938 1167.33C266.555 1172.74 266.78 1180.96 266.438 1185.58C266.096 1190.21 265.549 1197.71 265.221 1202.25C264.796 1208.12 265.084 1212.46 266.221 1217.31C267.266 1221.77 267.817 1228.77 267.817 1237.59C267.817 1257.38 269.782 1260.6 283.634 1263.51C287.86 1264.4 292.286 1265.52 293.47 1266C296.043 1267.04 301.967 1275.72 304.391 1282C305.346 1284.47 306.843 1287.33 307.718 1288.35C308.592 1289.37 309.997 1292.06 310.839 1294.34C313.037 1300.29 318.553 1303.18 327.742 1303.18C331.571 1303.18 335.66 1302.59 336.968 1301.86C338.26 1301.14 342.051 1300.53 345.393 1300.52C353.195 1300.49 357.196 1297.62 362.791 1288.04C366.181 1282.24 366.817 1280.27 366.817 1275.6C366.817 1270.62 366.535 1269.87 364.067 1268.36C362.555 1267.44 360.417 1265.71 359.317 1264.53C358.217 1263.34 353.741 1259.48 349.371 1255.94C340.289 1248.58 336.898 1245.08 333.627 1239.7C332.357 1237.6 327.538 1230.18 322.92 1223.2C310.857 1204.96 310.032 1202.85 308.7 1186.94C307.538 1173.06 307.85 1168.37 312.45 1130.5C314.869 1110.59 316.052 1097.8 319.988 1049C321.702 1027.76 322.144 997.301 320.831 991C320.2 987.975 318.103 978.806 316.169 970.626C313.105 957.66 312.543 953.232 311.79 936.126C311.315 925.331 310.404 911.429 309.765 905.231C308.772 895.601 308.845 892.473 310.266 883.731C312 873.067 313.143 868.548 315.386 863.5C319.941 853.248 322.538 836.494 322.723 816.17C322.775 810.489 323.248 801.714 323.775 796.67C324.302 791.627 325.26 782.55 325.904 776.5C329.301 744.589 330.266 694.112 327.911 671.5C326.834 661.157 326.221 657.181 322.437 636C321.602 631.325 320.24 623.675 319.411 619C317.436 607.864 314.808 597.001 313.483 594.5C312.87 593.342 312.164 581.764 311.807 567C311.386 549.625 310.793 540.769 309.945 539.207C308.931 537.338 308.989 535.921 310.259 531.553C313.089 521.816 311.707 498.191 307.798 489.5C307.304 488.4 305.997 482.028 304.894 475.339C302.646 461.697 302.829 447.999 305.434 435C310.612 409.163 316.885 388.454 318.844 390.735C319.205 391.156 320.275 394.456 321.221 398.068C322.167 401.68 324.01 405.881 325.318 407.403C328.216 410.776 328.538 412.226 332.242 438.606C332.945 443.614 333.808 448.177 334.16 448.746C334.512 449.315 335.267 458.492 335.839 469.14C336.916 489.187 339.221 511.277 340.781 516.5C341.274 518.15 341.957 521.525 342.299 524C342.642 526.475 343.349 530.525 343.872 533C344.395 535.475 345.51 541.325 346.35 546C347.19 550.675 348.286 556.3 348.785 558.5C349.284 560.7 350.416 566.55 351.299 571.5C352.182 576.45 353.37 582.615 353.94 585.199C354.51 587.783 355.375 592.283 355.864 595.199C356.353 598.115 357.464 604.1 358.335 608.5C360.424 619.064 361.356 633.639 360.044 635.25C357.22 638.72 349.715 654.294 348.36 659.496C347.511 662.754 346.817 668.904 346.817 673.161C346.817 681.341 345.272 690.645 343.56 692.772C342.997 693.471 342.314 698.295 342.042 703.492C341.641 711.148 341.858 713.413 343.182 715.435C345.489 718.956 345.312 719.397 340.783 721.395C335.641 723.663 333.691 726.684 333.483 732.703L333.317 737.5L340.922 737.228C355.048 736.723 373.767 731.115 377.317 726.324C379.946 722.776 383.102 717.638 386.352 711.614C387.802 708.926 390.096 705.551 391.449 704.114C392.802 702.676 394.828 700.032 395.952 698.238L397.996 694.975L395.289 675.738C392.425 655.38 392.365 648.344 394.756 613C395.548 601.296 398.194 577.98 399.239 573.5C399.496 572.4 400.449 558.11 401.357 541.744C402.72 517.164 402.824 507.596 401.953 486.744C400.794 459.022 400.017 454.58 394.169 442.256C392.15 438.001 390.086 432.941 389.582 431.01C387.137 421.636 385.016 408.486 384.421 399C383.755 388.396 382.845 382.506 378.777 362.5C376.298 350.307 375.962 337.853 377.737 323.922C378.981 314.162 377.807 298.116 375.182 289C371.896 277.59 370.436 273.406 368.16 268.875C366.871 266.309 365.817 263.856 365.817 263.424C365.817 261.586 354.415 245.884 350.378 242.163C347.957 239.931 342.726 236.394 338.754 234.303C334.783 232.211 329.684 229.514 327.425 228.309C325.166 227.104 322.32 226.091 321.101 226.059C319.883 226.027 316.058 224.454 312.601 222.564C309.145 220.674 303.617 218.145 300.317 216.945C297.017 215.744 289.142 212.412 282.817 209.539C276.492 206.667 268.86 203.233 265.858 201.908C262.856 200.584 257.866 197.642 254.77 195.372L249.141 191.243L247.816 183.493C246.747 177.245 246.718 172.941 247.666 161.283C248.312 153.33 249.293 145.978 249.846 144.945C250.399 143.912 250.561 141.252 250.206 139.034C249.581 135.121 249.646 135 252.388 135C254.496 135 256.436 133.7 260.016 129.886C262.657 127.074 264.817 123.95 264.817 122.945C264.817 121.94 265.216 120.871 265.704 120.57C266.191 120.269 266.899 118.376 267.276 116.365C267.654 114.353 268.717 111.556 269.64 110.147C270.797 108.381 271.294 105.594 271.243 101.159C271.159 93.963 269.719 92 264.523 92H261.612L262.244 83.25C264.206 56.12 264.156 53.799 261.478 47.961C258.989 42.535 255.245 38.233 251.208 36.163C249.91 35.497 248.586 33.24 247.763 30.29C247.028 27.656 245.843 24.375 245.128 23C244.414 21.625 243.827 20.012 243.823 19.415C243.82 18.819 242.579 17.161 241.067 15.732C239.555 14.302 236.617 11.337 234.539 9.14103C230.555 4.93203 228.449 4.15303 213.817 1.47703C205.623 -0.0209683 200.486 -0.335969 199.547 0.603031ZM82.9495 399.5C84.0745 402.8 85.7985 407.3 86.7815 409.5C87.7645 411.7 88.9005 415.075 89.3075 417C89.7145 418.925 90.3665 420.95 90.7565 421.5C91.1465 422.05 92.2556 425.425 93.2206 429C94.1855 432.575 95.5025 437.3 96.1455 439.5C97.6205 444.538 97.6825 467.882 96.2305 471.096C94.2715 475.431 90.7655 486.318 88.0505 496.5C85.8795 504.641 85.3325 509.102 85.1095 520.5C84.9585 528.2 84.3285 536.75 83.7085 539.5C83.0895 542.25 82.4525 553.5 82.2945 564.5C82.1125 577.117 81.5605 585.608 80.8005 587.5C79.2575 591.338 77.1905 599.479 75.3395 609C73.0445 620.801 70.1445 633.834 67.9875 642.04C64.1665 656.575 61.9715 674.784 59.7336 710.5C59.1136 720.4 58.4365 728.679 58.2295 728.899C57.3425 729.837 49.0245 724.451 47.0335 721.649L44.8575 718.586L46.9275 716.382C48.8415 714.345 48.9555 713.355 48.4295 703.339C48.1175 697.377 47.5875 689.97 47.2535 686.878C46.7665 682.365 47.0575 680.405 48.7315 676.94C52.0415 670.09 51.0305 652.996 46.9965 647.609C43.3975 642.801 42.3795 615.951 45.2115 600.5C47.8735 585.975 52.7275 561.683 55.3035 550C59.9965 528.708 61.6165 519.555 62.7345 508C63.3475 501.675 64.5236 490.425 65.3495 483C66.1745 475.575 66.8535 466.8 66.8575 463.5C66.8625 460.2 67.2785 455.7 67.7845 453.5C68.2895 451.3 69.1975 445.675 69.8015 441C73.4675 412.654 74.7975 401.007 74.8065 397.193C74.8125 394.824 75.3335 390.832 75.9655 388.322L77.1145 383.758L79.0095 388.629C80.0515 391.308 81.8245 396.2 82.9495 399.5ZM366.71 689.75C368.618 691.328 368.762 692.161 368.178 698.238C367.626 703.978 367.022 705.569 364.096 708.988C362.207 711.194 359.796 713 358.739 713C356.7 713 356.279 712.015 357.648 710.45C358.988 708.919 360.62 702.017 361.362 694.75C362.098 687.527 363.002 686.682 366.71 689.75Z" fill="black"/>
</mask>
<g mask="url(#mask0_42_66)">
<rect x="83" y="-99" width="258" height="287" fill="#353333"/>
</g>
<mask id="mask1_42_66" style="mask-type:alpha" maskUnits="userSpaceOnUse" x="0" y="0" width="403" height="1305">
<path fill-rule="evenodd" clip-rule="evenodd" d="M199.547 0.603031C199.215 0.935031 195.428 1.61903 191.13 2.12403C186.833 2.62903 181.153 3.29403 178.508 3.60203C172.416 4.31203 164.029 7.99703 159.544 11.935C157.634 13.612 154.341 17.497 152.224 20.57C149.862 24 147.11 26.687 145.097 27.528C142.176 28.748 141.817 29.33 141.817 32.842C141.817 35.425 141.299 36.985 140.317 37.362C138.643 38.004 138.28 41.55 139.792 42.484C140.344 42.826 140.502 45.02 140.156 47.544C139.772 50.348 139.93 52 140.583 52C141.154 52 141.931 54.813 142.311 58.25C142.69 61.688 144.05 68.325 145.333 73C146.616 77.675 147.957 84.089 148.313 87.253L148.962 93.005L146.398 92.031C144.988 91.495 143.121 91.33 142.249 91.664C139.016 92.905 137.744 101.175 139.938 106.685C140.555 108.233 142.086 113.45 143.34 118.277C145.725 127.456 149.599 134 152.647 134C154.009 134 154.6 135.434 155.441 140.772C156.027 144.497 157.291 149.196 158.248 151.214C159.835 154.557 159.89 156.332 158.866 171.174C158.083 182.521 157.279 188.173 156.214 189.797C154.746 192.039 131.845 204 129.021 204C128.288 204 125.176 205.149 122.105 206.554C115.229 209.699 101.096 214.401 94.1035 215.868C79.3705 218.962 56.4045 228.696 48.7075 235.11C37.9515 244.072 27.2055 262.259 22.6545 279.202C20.8385 285.965 20.3055 291.383 19.7735 308.5C19.1545 328.436 16.8915 351.368 14.7915 359C13.6305 363.216 13.6035 386.416 14.7415 401.171C15.3205 408.682 15.1865 414.16 14.2875 419.671C12.8705 428.357 12.4685 429.565 7.47254 440.131C5.55654 444.184 3.49954 450.17 2.90254 453.434C0.395544 467.133 2.57155 567.105 5.89755 591C6.47155 595.125 7.37055 606.375 7.89655 616C8.42255 625.625 9.11754 636.425 9.44254 640C9.98554 645.978 8.94554 655.304 6.76654 664C6.28354 665.925 5.23854 670.2 4.44454 673.5C3.64954 676.8 2.28355 682.182 1.40755 685.46C-0.843451 693.892 -0.681455 694.929 4.01055 702.095C6.31655 705.618 9.66754 712.1 11.4565 716.5C15.8965 727.42 19.3085 730.59 30.3165 734.024C32.5165 734.71 35.4595 736.074 36.8565 737.054C40.9905 739.956 51.9436 743.241 55.5396 742.658C57.3216 742.368 58.9625 742.44 59.1855 742.816C59.4095 743.192 59.8855 764.875 60.2445 791C60.8575 835.533 61.0485 839.281 63.3055 851C69.6995 884.188 69.6845 884.044 67.3375 891.072C64.6695 899.059 62.8165 913.048 62.7925 925.381C62.7795 932.046 62.3365 939.3 61.8075 941.5C61.2785 943.7 60.1396 950 59.2766 955.5C58.4136 961 56.7775 969.775 55.6425 975C54.5065 980.225 53.2015 986.3 52.7405 988.5C51.3575 995.11 51.7075 1025.95 53.3095 1038.66C54.1315 1045.17 55.7085 1062.2 56.8135 1076.5C60.6155 1125.67 63.3595 1149.99 66.8775 1165.69C69.0175 1175.25 67.4105 1200.59 64.2255 1207.5C63.4645 1209.15 59.2255 1215.68 54.8055 1222C50.3855 1228.32 46.4955 1234.62 46.1605 1236C44.5785 1242.49 41.2775 1247.49 34.0955 1254.28C29.8895 1258.25 25.6305 1262.29 24.6325 1263.25C23.6335 1264.21 22.8165 1265.49 22.8165 1266.1C22.8165 1266.7 21.5095 1268.42 19.9115 1269.91C16.9595 1272.67 16.4955 1274.07 16.7015 1279.59C16.8485 1283.55 24.8885 1293.02 32.5335 1298.25C36.7645 1301.14 38.9955 1302 42.2915 1302C44.6425 1302 48.4785 1302.68 50.8165 1303.5C55.5605 1305.17 63.4705 1305.47 67.0015 1304.11C68.2745 1303.61 70.3635 1302.29 71.6425 1301.17C74.8705 1298.34 81.3625 1285.54 84.3255 1276.16C85.6875 1271.85 87.5925 1267.61 88.5585 1266.73C89.5255 1265.86 93.3075 1264.4 96.9625 1263.48C101.971 1262.22 104.437 1260.96 106.963 1258.35C110.14 1255.07 110.308 1254.54 110.148 1248.2C109.697 1230.34 109.846 1223.6 110.926 1212.83C111.956 1202.57 111.882 1200.06 110.315 1191.99C108.488 1182.58 108.589 1173.93 110.716 1157.5C111.215 1153.65 112.125 1146.22 112.74 1141C113.354 1135.78 114.283 1128.8 114.804 1125.5C115.325 1122.2 116.46 1112.3 117.326 1103.5C118.193 1094.7 120.034 1081.27 121.419 1073.65C127.301 1041.29 127.828 1029.73 125.189 990.903L123.518 966.305L126.186 957.903C128.918 949.301 133.106 938.593 137.4 929.228C138.729 926.328 139.817 923.273 139.817 922.438C139.817 921.603 140.648 919.251 141.663 917.21C142.678 915.17 144.959 907.2 146.731 899.5C148.503 891.8 150.366 883.7 150.871 881.5C151.376 879.3 152.293 873.225 152.909 868C155.123 849.222 155.668 845.388 157.188 837.887C158.617 830.836 161.701 821.522 165.188 813.729C165.982 811.953 168.776 803.975 171.395 796C174.015 788.025 176.488 780.6 176.891 779.5C178.138 776.097 181.434 762.107 183.487 751.5C183.807 749.85 184.422 748.05 184.853 747.5C186.497 745.406 188.818 733.949 188.832 727.856C188.852 719.605 189.44 718.756 194.563 719.575C199.202 720.317 199.782 721.435 199.803 729.691C199.811 732.546 200.215 735.128 200.702 735.429C201.188 735.729 201.88 738.118 202.238 740.738C202.597 743.357 203.324 747.637 203.854 750.25C204.383 752.862 205.241 757.137 205.76 759.75C209.24 777.284 212.184 787.893 218.598 806C220.253 810.675 222.568 819 223.741 824.5C224.915 830 226.321 836.075 226.867 838C228.424 843.493 232.689 883.072 233.332 898C233.652 905.425 234.307 913.075 234.788 915C237.719 926.741 246.007 951.308 247.755 953.437C248.235 954.021 249.377 957.087 250.293 960.248C251.875 965.712 251.849 967.1 249.761 988.248C247.918 1006.91 247.653 1014.29 248.116 1034C248.617 1055.31 248.908 1058.34 251.25 1066.5C254.955 1079.41 256.577 1087.92 257.825 1101C258.428 1107.32 259.333 1115.2 259.836 1118.5C260.819 1124.95 264.116 1151.34 265.938 1167.33C266.555 1172.74 266.78 1180.96 266.438 1185.58C266.096 1190.21 265.549 1197.71 265.221 1202.25C264.796 1208.12 265.084 1212.46 266.221 1217.31C267.266 1221.77 267.817 1228.77 267.817 1237.59C267.817 1257.38 269.782 1260.6 283.634 1263.51C287.86 1264.4 292.286 1265.52 293.47 1266C296.043 1267.04 301.967 1275.72 304.391 1282C305.346 1284.47 306.843 1287.33 307.718 1288.35C308.592 1289.37 309.997 1292.06 310.839 1294.34C313.037 1300.29 318.553 1303.18 327.742 1303.18C331.571 1303.18 335.66 1302.59 336.968 1301.86C338.26 1301.14 342.051 1300.53 345.393 1300.52C353.195 1300.49 357.196 1297.62 362.791 1288.04C366.181 1282.24 366.817 1280.27 366.817 1275.6C366.817 1270.62 366.535 1269.87 364.067 1268.36C362.555 1267.44 360.417 1265.71 359.317 1264.53C358.217 1263.34 353.741 1259.48 349.371 1255.94C340.289 1248.58 336.898 1245.08 333.627 1239.7C332.357 1237.6 327.538 1230.18 322.92 1223.2C310.857 1204.96 310.032 1202.85 308.7 1186.94C307.538 1173.06 307.85 1168.37 312.45 1130.5C314.869 1110.59 316.052 1097.8 319.988 1049C321.702 1027.75 322.144 997.301 320.831 991C320.2 987.975 318.103 978.806 316.169 970.626C313.105 957.66 312.543 953.232 311.79 936.126C311.315 925.331 310.404 911.429 309.765 905.231C308.772 895.601 308.845 892.473 310.266 883.731C312 873.067 313.143 868.548 315.386 863.5C319.941 853.248 322.538 836.494 322.723 816.17C322.775 810.489 323.248 801.714 323.775 796.67C324.302 791.627 325.26 782.55 325.904 776.5C329.301 744.589 330.266 694.112 327.911 671.5C326.834 661.157 326.221 657.181 322.437 636C321.602 631.325 320.24 623.675 319.411 619C317.436 607.864 314.808 597.001 313.483 594.5C312.87 593.342 312.164 581.764 311.807 567C311.386 549.625 310.793 540.769 309.945 539.207C308.931 537.338 308.989 535.921 310.259 531.553C313.089 521.816 311.707 498.191 307.798 489.5C307.304 488.4 305.997 482.028 304.894 475.339C302.646 461.697 302.829 447.999 305.434 435C310.612 409.163 316.885 388.454 318.844 390.735C319.205 391.156 320.275 394.456 321.221 398.068C322.167 401.68 324.01 405.881 325.318 407.403C328.216 410.776 328.538 412.226 332.242 438.606C332.945 443.614 333.808 448.177 334.16 448.746C334.512 449.315 335.267 458.492 335.839 469.14C336.916 489.187 339.221 511.277 340.781 516.5C341.274 518.15 341.957 521.525 342.299 524C342.642 526.475 343.349 530.525 343.872 533C344.395 535.475 345.51 541.325 346.35 546C347.19 550.675 348.286 556.3 348.785 558.5C349.284 560.7 350.416 566.55 351.299 571.5C352.182 576.45 353.37 582.615 353.94 585.199C354.51 587.783 355.375 592.283 355.864 595.199C356.353 598.115 357.464 604.1 358.335 608.5C360.424 619.064 361.356 633.639 360.044 635.25C357.22 638.72 349.715 654.294 348.36 659.496C347.511 662.754 346.817 668.904 346.817 673.161C346.817 681.341 345.272 690.645 343.56 692.772C342.997 693.471 342.314 698.295 342.042 703.492C341.641 711.148 341.858 713.413 343.182 715.435C345.489 718.956 345.312 719.397 340.783 721.395C335.641 723.663 333.691 726.684 333.483 732.703L333.317 737.5L340.922 737.228C355.048 736.723 373.767 731.115 377.317 726.324C379.946 722.776 383.102 717.638 386.352 711.614C387.802 708.926 390.096 705.551 391.449 704.114C392.802 702.676 394.828 700.032 395.952 698.238L397.996 694.975L395.289 675.738C392.425 655.38 392.365 648.344 394.756 613C395.548 601.296 398.194 577.98 399.239 573.5C399.496 572.4 400.449 558.11 401.357 541.744C402.72 517.164 402.824 507.596 401.953 486.744C400.794 459.022 400.017 454.58 394.169 442.256C392.15 438.001 390.086 432.941 389.582 431.01C387.137 421.636 385.016 408.486 384.421 399C383.755 388.396 382.845 382.506 378.777 362.5C376.298 350.307 375.962 337.853 377.737 323.922C378.981 314.162 377.807 298.116 375.182 289C371.896 277.59 370.436 273.406 368.16 268.875C366.871 266.309 365.817 263.856 365.817 263.424C365.817 261.586 354.415 245.884 350.378 242.163C347.957 239.931 342.726 236.394 338.754 234.303C334.783 232.211 329.684 229.514 327.425 228.309C325.166 227.104 322.32 226.091 321.101 226.059C319.883 226.027 316.058 224.454 312.601 222.564C309.145 220.674 303.617 218.145 300.317 216.945C297.017 215.744 289.142 212.412 282.817 209.539C276.492 206.667 268.86 203.233 265.858 201.908C262.856 200.584 257.866 197.642 254.77 195.372L249.141 191.243L247.816 183.493C246.747 177.245 246.718 172.941 247.666 161.283C248.312 153.33 249.293 145.978 249.846 144.945C250.399 143.912 250.561 141.252 250.206 139.034C249.581 135.121 249.646 135 252.388 135C254.496 135 256.436 133.7 260.016 129.886C262.657 127.074 264.817 123.95 264.817 122.945C264.817 121.94 265.216 120.871 265.704 120.57C266.191 120.269 266.899 118.376 267.276 116.365C267.654 114.353 268.717 111.556 269.64 110.147C270.797 108.381 271.294 105.594 271.243 101.159C271.159 93.963 269.719 92 264.523 92H261.612L262.244 83.25C264.206 56.12 264.156 53.799 261.478 47.961C258.989 42.535 255.245 38.233 251.208 36.163C249.91 35.497 248.586 33.24 247.763 30.29C247.028 27.656 245.843 24.375 245.128 23C244.414 21.625 243.827 20.012 243.823 19.415C243.82 18.819 242.579 17.161 241.067 15.732C239.555 14.302 236.617 11.337 234.539 9.14103C230.555 4.93203 228.449 4.15303 213.817 1.47703C205.623 -0.0209683 200.486 -0.335969 199.547 0.603031ZM82.9495 399.5C84.0745 402.8 85.7985 407.3 86.7815 409.5C87.7645 411.7 88.9005 415.075 89.3075 417C89.7145 418.925 90.3665 420.95 90.7565 421.5C91.1465 422.05 92.2556 425.425 93.2206 429C94.1856 432.575 95.5025 437.3 96.1455 439.5C97.6205 444.538 97.6825 467.882 96.2305 471.096C94.2715 475.431 90.7655 486.318 88.0505 496.5C85.8795 504.641 85.3325 509.102 85.1095 520.5C84.9585 528.2 84.3285 536.75 83.7085 539.5C83.0895 542.25 82.4525 553.5 82.2945 564.5C82.1125 577.117 81.5605 585.608 80.8005 587.5C79.2575 591.338 77.1905 599.479 75.3395 609C73.0445 620.801 70.1445 633.834 67.9875 642.04C64.1665 656.575 61.9716 674.784 59.7336 710.5C59.1136 720.4 58.4365 728.679 58.2295 728.899C57.3425 729.837 49.0245 724.451 47.0335 721.649L44.8575 718.586L46.9275 716.382C48.8415 714.345 48.9555 713.355 48.4295 703.339C48.1175 697.377 47.5875 689.97 47.2535 686.878C46.7665 682.365 47.0575 680.405 48.7315 676.94C52.0415 670.09 51.0305 652.996 46.9965 647.609C43.3975 642.801 42.3795 615.951 45.2115 600.5C47.8735 585.975 52.7275 561.683 55.3035 550C59.9965 528.708 61.6165 519.555 62.7345 508C63.3475 501.675 64.5235 490.425 65.3495 483C66.1745 475.575 66.8535 466.8 66.8575 463.5C66.8625 460.2 67.2785 455.7 67.7845 453.5C68.2895 451.3 69.1975 445.675 69.8015 441C73.4675 412.654 74.7975 401.007 74.8065 397.193C74.8125 394.824 75.3335 390.832 75.9655 388.322L77.1145 383.758L79.0095 388.629C80.0515 391.308 81.8245 396.2 82.9495 399.5ZM366.71 689.75C368.618 691.328 368.762 692.161 368.178 698.238C367.626 703.978 367.022 705.569 364.096 708.988C362.207 711.194 359.796 713 358.739 713C356.7 713 356.279 712.015 357.648 710.45C358.988 708.919 360.62 702.017 361.362 694.75C362.098 687.527 363.002 686.682 366.71 689.75Z" fill="black"/>
</mask>
<g mask="url(#mask1_42_66)">
<rect x="-43" y="938" width="489" height="427" fill="#353333"/>
<path d="M423.876 342.316L369.934 272.089L335.329 264.965L325.151 510.249L340.418 732.125L405.556 748.409V717.876L397.414 647.649C376.244 626.479 388.593 570.977 397.414 545.871C408.813 518.188 411.663 471.913 411.663 452.236L423.876 342.316Z" fill="#353333"/>
<path d="M-28.4892 350.33L25.453 280.104L60.0577 272.979L70.2354 518.264L54.9686 740.14L-10.1692 756.424V725.891L-2.02695 655.664C19.1428 634.494 6.79379 578.991 -2.02695 553.886C-13.4261 526.203 -16.2758 479.928 -16.2758 460.25L-28.4892 350.33Z" fill="#353333"/>
</g>
</svg>
